<?xml version="1.0" encoding="UTF-8"?>
<svg width="48px" height="42px" viewBox="0 0 48 42" version="1.1" xmlns="http://www.w3.org/2000/svg" xmlns:xlink="http://www.w3.org/1999/xlink">
    <!-- Generator: Sketch 62 (91390) - https://sketch.com -->
    <title>Artboard</title>
    <desc>Created with Sketch.</desc>
    <g id="Artboard" stroke="none" stroke-width="1" fill="none" fill-rule="evenodd">
        <g id="icZeplin" transform="translate(0.000000, 2.000000)" fill-rule="nonzero">
            <path d="M7.39840941,26.1785786 L4.88736,27.0863439 L4.75253648,34.478704 L13.4449412,31.3363424 C10.4635482,30.3452856 8.28635296,28.6016324 7.39840941,26.1785786" id="Path" fill="#FDBD39"></path>
            <path d="M8.71250824,18.3598893 L2.13162821e-15,21.5095424 L4.88736,27.0863439 L7.39840941,26.1785786 C6.51306353,23.7625919 7.05904941,21.0315557 8.71250824,18.3598893" id="Path" fill="#F69833"></path>
            <path d="M23.3741082,7.69310701 C12.2795577,11.7038598 5.1269647,19.9800915 7.39840941,26.1785786 L47.5753977,11.6543055 C45.303953,5.4557904 34.468687,3.68232621 23.3741082,7.69310701" id="Path" fill="#FECF33"></path>
            <path d="M31.5996706,30.1397771 C42.6942494,26.1289963 49.8602823,17.8894746 47.5753977,11.6543055 L7.39840941,26.1785786 C9.68326592,32.4137757 20.50512,34.1505299 31.5996706,30.1397771" id="Path" fill="#EE6723"></path>
            <path d="M47.5753977,11.6543055 L7.39840941,26.1785786 C8.18512944,28.3254524 11.1852141,29.3831424 15.394673,29.3831424 C19.49856,29.3831424 24.7519059,28.3785963 30.2287341,26.3986421 C41.3233412,22.3878893 49.1291012,15.8942081 47.5753977,11.6543055" id="Path" fill="#F69833"></path>
            <path d="M39.5791341,8.44971366 C35.4752188,8.44971366 30.2219012,9.45428784 24.7450165,11.434214 C13.6504659,15.4449948 5.84467765,21.938648 7.39840941,26.1785786 L47.5753977,11.6543055 C46.7886777,9.50740368 43.788593,8.44971366 39.5791341,8.44971366" id="Path" fill="#FDBD39"></path>
            <path d="M37.3602918,34.8701461 L37.3600094,34.8701461 C36.1779388,34.8701461 34.4340141,33.8135218 32.1766306,31.7296635 C29.5060235,29.2642627 26.4468423,25.6532531 23.5624941,21.5618731 C20.6782588,17.4706613 18.3082447,13.3804029 16.8890541,10.0445077 C15.3428047,6.4092118 15.1223435,4.17399852 16.2337694,3.40090185 C16.4774682,3.23157048 16.7712282,3.14578302 17.106833,3.14578302 C18.0108988,3.14578302 19.7724423,3.81186273 23.0298353,6.98524133 L23.101073,7.05459484 L23.0914447,7.15322657 C23.069167,7.38119852 23.04864,7.61121771 23.0303435,7.83697417 L22.994033,8.28526201 L22.6744659,7.96665093 C19.1647341,4.46759409 17.6197553,4.08983764 17.118353,4.08983764 C16.9753694,4.08983764 16.8614965,4.11861106 16.7798682,4.17540073 C16.2977788,4.51061401 16.2667482,6.15243837 17.7658447,9.6764546 C19.1597082,12.9528959 21.495247,16.9812886 24.34224,21.0195247 C27.1893459,25.0581535 30.201713,28.6157948 32.8245741,31.03711 C35.6529318,33.6480324 36.927473,33.9299616 37.3441977,33.9299616 C37.4880847,33.9299616 37.605007,33.8993653 37.6917177,33.839014 C38.2002918,33.4854037 38.2008847,31.7265786 36.5291294,27.9335616 L36.4523859,27.7594347 L36.6203859,27.668431 C36.7884141,27.5773993 36.9509082,27.4877697 37.1032941,27.4020384 L37.3045553,27.2888517 L37.3973365,27.4992118 C38.5827106,30.1868635 39.6907482,33.6027971 38.2378165,34.6135129 C37.992847,34.7837978 37.697647,34.8701461 37.3602918,34.8701461 L37.3602918,34.8701461 Z M37.3600094,34.4555675 L37.3603094,34.4555675 L37.3601094,34.6628428 L37.3600094,34.4555675 Z" id="Shape" fill="#EE6723"></path>
            <path d="M31.869007,30.0264502 L31.8521223,30.2330244 C31.571633,33.6675233 30.8331106,37.7965948 28.90752,37.9637107 C28.8687812,37.9671321 28.8286023,37.9688989 28.7884235,37.9688989 C27.4803106,37.9688989 26.2427294,36.1141904 25.110127,32.4562066 C24.038513,28.9955424 23.2069553,24.3490539 22.7686306,19.3727084 C22.3302777,14.3974007 22.3368565,9.67810918 22.7871247,6.08426273 C23.2779106,2.16807528 24.212273,0.122918078 25.5640941,0.005524725 C25.604047,0.00187896542 25.6454682,1.687539e-14 25.6863812,1.687539e-14 C26.6353412,1.687539e-14 28.0655153,1.06332693 29.5296282,6.01611513 L28.5736377,6.19871144 C28.0848,4.54362213 27.5520565,3.19749668 27.0231812,2.27251217 C26.5339482,1.41693726 26.0582682,0.945765312 25.6836706,0.945765312 C25.67136,0.945765312 25.6589647,0.94627011 25.6467388,0.947307748 C25.0608,0.998236163 24.207473,2.40474095 23.7317365,6.20103911 C23.289487,9.73041182 23.2841506,14.3789756 23.7167153,19.2904266 C24.1495341,24.2026066 24.9675106,28.7796575 26.0198965,32.1783159 C26.4912,33.7004753 27.00816,34.954952 27.5148706,35.8062081 C27.9821365,36.5911955 28.4343247,37.0235262 28.7881412,37.0235262 C28.8003106,37.0235262 28.8124235,37.0229653 28.8245082,37.0219557 C29.3851482,36.9733269 30.4416847,35.5096959 30.8863623,30.3601491 L31.869007,30.0264502" id="Path" fill="#EE6723"></path>
        </g>
    </g>
</svg>